<svg width="135" height="124" viewBox="0 0 135 124" fill="none" xmlns="http://www.w3.org/2000/svg">
<g clip-path="url(#clip0_34_14)">
<path d="M67.4388 86.6291C103.064 86.6291 131.944 75.6022 131.944 61.9998C131.944 48.3975 103.064 37.3706 67.4388 37.3706C31.8135 37.3706 2.93359 48.3975 2.93359 61.9998C2.93359 75.6022 31.8135 86.6291 67.4388 86.6291Z" stroke="#61DAFB" stroke-width="5.86411"/>
<path d="M46.1052 74.3146C63.9178 105.167 87.9073 124.664 99.6873 117.863C111.467 111.062 106.577 80.5377 88.7643 49.6854C70.9517 18.833 46.9622 -0.664292 35.1822 6.13688C23.4022 12.9381 28.2926 43.4623 46.1052 74.3146Z" stroke="#61DAFB" stroke-width="5.86411"/>
<path d="M46.1059 49.6865C28.2933 80.5388 23.4029 111.063 35.1829 117.864C46.9629 124.665 70.9524 105.168 88.765 74.3157C106.578 43.4634 111.468 12.9392 99.688 6.13802C87.908 -0.663161 63.9185 18.8342 46.1059 49.6865Z" stroke="#61DAFB" stroke-width="5.86411"/>
<mask id="mask0_34_14" style="mask-type:alpha" maskUnits="userSpaceOnUse" x="55" y="49" width="25" height="26">
<path d="M55 64.3663V59.6337H80V64.3663H55ZM65.0825 49H69.9764V75H65.0825V49Z" fill="#61DAFB"/>
</mask>
<g mask="url(#mask0_34_14)">
<path d="M67.4335 74.0209C74.0728 74.0209 79.4549 68.6387 79.4549 61.9994C79.4549 55.3602 74.0728 49.978 67.4335 49.978C60.7943 49.978 55.4121 55.3602 55.4121 61.9994C55.4121 68.6387 60.7943 74.0209 67.4335 74.0209Z" fill="#61DAFB"/>
</g>
</g>
<defs>
<clipPath id="clip0_34_14">
<rect width="135" height="124" fill="white"/>
</clipPath>
</defs>
</svg>
