<svg width="270" height="248" viewBox="0 0 270 248" fill="none" xmlns="http://www.w3.org/2000/svg">
<g clip-path="url(#clip0_39_3)">
<path d="M134.878 173.258C206.128 173.258 263.888 151.204 263.888 124C263.888 96.795 206.128 74.7412 134.878 74.7412C63.6271 74.7412 5.86719 96.795 5.86719 124C5.86719 151.204 63.6271 173.258 134.878 173.258Z" stroke="#61DAFB" stroke-width="11.7282"/>
<path d="M92.2104 148.629C127.836 210.334 175.815 249.329 199.375 235.726C222.935 222.124 213.154 161.075 177.529 99.3707C141.903 37.6661 93.9243 -1.32858 70.3643 12.2738C46.8044 25.8761 56.5852 86.9245 92.2104 148.629Z" stroke="#61DAFB" stroke-width="11.7282"/>
<path d="M92.2118 99.373C56.5866 161.078 46.8058 222.126 70.3657 235.728C93.9257 249.331 141.905 210.336 177.53 148.631C213.155 86.9268 222.936 25.8784 199.376 12.276C175.816 -1.32632 127.837 37.6683 92.2118 99.373Z" stroke="#61DAFB" stroke-width="11.7282"/>
<mask id="mask0_39_3" style="mask-type:alpha" maskUnits="userSpaceOnUse" x="110" y="99" width="50" height="50">
<path fill-rule="evenodd" clip-rule="evenodd" d="M140 99H130V119H110V129H130V149H140V129H160V119H140V99Z" fill="white"/>
</mask>
<g mask="url(#mask0_39_3)">
<path d="M134.867 148.042C148.146 148.042 158.91 137.277 158.91 123.999C158.91 110.72 148.146 99.9561 134.867 99.9561C121.589 99.9561 110.824 110.72 110.824 123.999C110.824 137.277 121.589 148.042 134.867 148.042Z" fill="#61DAFB"/>
</g>
</g>
<defs>
<clipPath id="clip0_39_3">
<rect width="270" height="248" fill="white"/>
</clipPath>
</defs>
</svg>
